<?xml version="1.0" encoding="UTF-8" standalone="no"?>
<!-- Created with Inkscape (http://www.inkscape.org/) -->

<svg
   xmlns:dc="http://purl.org/dc/elements/1.1/"
   xmlns:cc="http://creativecommons.org/ns#"
   xmlns:rdf="http://www.w3.org/1999/02/22-rdf-syntax-ns#"
   xmlns:svg="http://www.w3.org/2000/svg"
   xmlns="http://www.w3.org/2000/svg"
   xmlns:sodipodi="http://sodipodi.sourceforge.net/DTD/sodipodi-0.dtd"
   xmlns:inkscape="http://www.inkscape.org/namespaces/inkscape"
   width="90mm"
   height="90mm"
   viewBox="0 0 90 90"
   version="1.1"
   id="svg8"
   inkscape:version="0.92.3 (2405546, 2018-03-11)"
   sodipodi:docname="channel_45.svg"
   inkscape:export-filename="channel_45.png"
   inkscape:export-xdpi="141.11111"
   inkscape:export-ydpi="141.11111">
  <defs
     id="defs2" />
  <sodipodi:namedview
     id="base"
     pagecolor="#ffffff"
     bordercolor="#666666"
     borderopacity="1.0"
     inkscape:pageopacity="0.0"
     inkscape:pageshadow="2"
     inkscape:zoom="1.4"
     inkscape:cx="266.01002"
     inkscape:cy="164.94398"
     inkscape:document-units="mm"
     inkscape:current-layer="layer1"
     showgrid="false"
     fit-margin-top="0"
     fit-margin-left="0"
     fit-margin-right="0"
     fit-margin-bottom="0"
     borderlayer="false"
     inkscape:pagecheckerboard="true"
     inkscape:window-width="1366"
     inkscape:window-height="705"
     inkscape:window-x="-8"
     inkscape:window-y="-8"
     inkscape:window-maximized="1"
     showguides="true" />
  <metadata
     id="metadata5">
    <rdf:RDF>
      <cc:Work
         rdf:about="">
        <dc:format>image/svg+xml</dc:format>
        <dc:type
           rdf:resource="http://purl.org/dc/dcmitype/StillImage" />
        <dc:title />
      </cc:Work>
    </rdf:RDF>
  </metadata>
  <g
     inkscape:label="Layer 1"
     inkscape:groupmode="layer"
     id="layer1"
     transform="translate(-38.754078,-76.008798)">
    <g
       id="g896"
       transform="matrix(2.2033435,0,0,2.4317445,-103.46509,-141.78662)">
      <path
         inkscape:connector-curvature="0"
         id="path823-3"
         d="m 84.088446,91.689322 a 16.426022,17.969564 85.823132 0 1 11.107364,2.573815 15.38659,17.475176 85.823132 0 0 -9.279536,-1.614031 15.38659,17.475176 85.823132 0 0 -16.307858,16.618484 15.38659,17.475176 85.823132 0 0 18.549248,14.07297 15.38659,17.475176 85.823132 0 0 8.303117,-2.54267 16.426022,17.969564 85.823132 0 1 -9.979523,3.65631 A 16.426022,17.969564 85.823132 0 1 67.36336,109.38025 16.426022,17.969564 85.823132 0 1 84.088446,91.689322 Z"
         style="opacity:1;fill:#aa0000;fill-opacity:1;stroke:none;stroke-width:2.59120011;stroke-linejoin:bevel;stroke-miterlimit:4;stroke-dasharray:none;stroke-opacity:1" />
      <path
         inkscape:connector-curvature="0"
         id="path823-3-5"
         d="m 88.191035,93.98008 a 15.17364,14.063561 4.9467288 0 0 -9.378344,2.203838 14.756108,13.173683 4.6937918 0 1 7.835051,-1.382024 14.756108,13.173683 4.6937918 0 1 13.769218,14.229596 14.756108,13.173683 4.6937918 0 1 -15.661698,12.04999 14.756108,13.173683 4.6937918 0 1 -7.010634,-2.17716 15.17364,14.063561 4.9467288 0 0 8.426079,3.13072 15.17364,14.063561 4.9467288 0 0 16.141823,-12.90708 15.17364,14.063561 4.9467288 0 0 -14.121495,-15.14788 z"
         style="opacity:1;fill:#0078a4;fill-opacity:1;stroke:none;stroke-width:2.20322323;stroke-linejoin:bevel;stroke-miterlimit:4;stroke-dasharray:none;stroke-opacity:1" />
    </g>
    <g
       aria-label="45"
       style="font-style:normal;font-weight:normal;font-size:10.58333302px;line-height:1.25;font-family:sans-serif;letter-spacing:0px;word-spacing:0px;fill:#000000;fill-opacity:1;stroke:none;stroke-width:0.26458332"
       id="text823">
      <path
         d="m 61.942166,101.77425 8.9408,0.5588 -0.9144,11.938 3.81,-0.1524 0.5588,-12.192 7.4676,0.1016 1.1176,30.2768 -9.3472,-0.1016 0.4064,-8.4836 -13.462,-0.3556 z"
         style="font-style:normal;font-variant:normal;font-weight:normal;font-stretch:normal;font-size:50.79999924px;font-family:'Soup of Justice';-inkscape-font-specification:'Soup of Justice';stroke-width:0.26458332"
         id="path829"
         inkscape:connector-curvature="0" />
      <path
         d="m 88.72329,102.28225 17.8308,-0.508 q 0.0508,2.54 0.1016,4.5212 0,0.8636 0,1.6764 0.0508,0.762 0.0508,1.4224 0,0.6096 -0.0508,0.9652 0,0.3556 0,0.3556 -0.0508,-0.0508 -1.3208,-0.1016 -1.27,-0.0508 -2.794,-0.1524 -1.778,-0.1016 -4.0132,-0.2032 l -0.2032,4.6228 q 2.3876,0.1524 4.0132,0.762 1.6256,0.6096 2.6416,1.6764 1.0668,1.016 1.6256,2.3876 0.6096,1.3716 0.9144,3.048 0,1.4732 -0.4064,2.794 -0.3556,1.1684 -1.1176,2.4384 -0.7112,1.2192 -2.032,2.1336 -1.8288,1.3208 -3.8608,1.9304 -2.032,0.5588 -4.064,0.6604 -1.9812,0.1524 -3.7592,-0.0508 -1.778,-0.2032 -3.1496,-0.5588 -1.3208,-0.3556 -2.032,-0.7112 -0.7112,-0.3556 -0.5588,-0.4572 l 0.3556,-5.2832 q 1.6764,0.5588 3.302,0.8128 1.3716,0.254 2.8448,0.254 1.524,-0.0508 2.5908,-0.6604 1.5748,-1.2192 1.524,-2.4384 -0.0508,-1.2192 -1.2192,-2.2352 -1.1684,-1.016 -3.2004,-1.6256 -2.032,-0.6096 -4.4196,-0.6096 z"
         style="font-style:normal;font-variant:normal;font-weight:normal;font-stretch:normal;font-size:50.79999924px;font-family:'Soup of Justice';-inkscape-font-specification:'Soup of Justice';stroke-width:0.26458332"
         id="path831"
         inkscape:connector-curvature="0" />
    </g>
    <g
       aria-label="Fairview"
       style="font-style:normal;font-weight:normal;font-size:10.58333302px;line-height:1.25;font-family:sans-serif;letter-spacing:0px;word-spacing:0px;fill:#000000;fill-opacity:1;stroke:none;stroke-width:0.26458332"
       id="text827">
      <path
         d="m 64.200934,142.30968 v -7.33425 h 4.6355 v 1.13241 h -3.302 v 1.87325 h 2.931583 v 1.13242 h -2.931583 v 3.19617 z"
         style="font-style:normal;font-variant:normal;font-weight:500;font-stretch:normal;font-family:Ubuntu;-inkscape-font-specification:'Ubuntu Medium';stroke-width:0.26458332"
         id="path834"
         inkscape:connector-curvature="0" />
      <path
         d="m 71.438446,141.41009 q 0.592666,0 0.899583,-0.0635 v -1.41816 q -0.105833,-0.0317 -0.306917,-0.0635 -0.201083,-0.0317 -0.4445,-0.0317 -0.211666,0 -0.433916,0.0317 -0.211667,0.0318 -0.391584,0.11641 -0.169333,0.0847 -0.275166,0.24342 -0.105834,0.14817 -0.105834,0.381 0,0.45508 0.28575,0.635 0.28575,0.16933 0.772584,0.16933 z m -0.105834,-4.77308 q 0.635,0 1.068917,0.15875 0.433916,0.15875 0.687916,0.4445 0.264584,0.28575 0.370417,0.6985 0.116417,0.40217 0.116417,0.889 v 3.35492 q -0.296334,0.0635 -0.899583,0.14816 -0.592667,0.0952 -1.344084,0.0952 -0.497416,0 -0.910166,-0.0952 -0.41275,-0.0952 -0.709084,-0.30691 -0.28575,-0.21167 -0.455083,-0.55034 -0.15875,-0.33866 -0.15875,-0.83608 0,-0.47625 0.179917,-0.80433 0.1905,-0.32809 0.508,-0.52917 0.3175,-0.21167 0.73025,-0.29633 0.423333,-0.0952 0.878416,-0.0952 0.211667,0 0.4445,0.0317 0.232834,0.0212 0.497417,0.0847 v -0.21166 q 0,-0.22225 -0.05292,-0.42334 -0.05292,-0.20108 -0.1905,-0.34925 -0.127,-0.15875 -0.34925,-0.24341 -0.211666,-0.0847 -0.53975,-0.0847 -0.4445,0 -0.814916,0.0635 -0.370417,0.0635 -0.60325,0.14817 l -0.15875,-1.03717 q 0.243416,-0.0847 0.709083,-0.16933 0.465667,-0.0847 0.994833,-0.0847 z"
         style="font-style:normal;font-variant:normal;font-weight:500;font-stretch:normal;font-family:Ubuntu;-inkscape-font-specification:'Ubuntu Medium';stroke-width:0.26458332"
         id="path836"
         inkscape:connector-curvature="0" />
      <path
         d="m 76.425345,142.30968 h -1.280583 v -5.53509 h 1.280583 z m 0.137583,-7.15434 q 0,0.35984 -0.232833,0.5715 -0.232834,0.21167 -0.550333,0.21167 -0.328084,0 -0.560917,-0.21167 -0.232833,-0.21166 -0.232833,-0.5715 0,-0.37041 0.232833,-0.58208 0.232833,-0.21167 0.560917,-0.21167 0.317499,0 0.550333,0.21167 0.232833,0.21167 0.232833,0.58208 z"
         style="font-style:normal;font-variant:normal;font-weight:500;font-stretch:normal;font-family:Ubuntu;-inkscape-font-specification:'Ubuntu Medium';stroke-width:0.26458332"
         id="path838"
         inkscape:connector-curvature="0" />
      <path
         d="m 81.202562,137.92818 q -0.15875,-0.0529 -0.4445,-0.10584 -0.275166,-0.0635 -0.645583,-0.0635 -0.211667,0 -0.455083,0.0423 -0.232834,0.0423 -0.328084,0.0741 v 4.43442 h -1.280583 v -5.2705 q 0.370417,-0.13759 0.92075,-0.254 0.560917,-0.127 1.23825,-0.127 0.127,0 0.296333,0.0212 0.169334,0.0106 0.338667,0.0423 0.169333,0.0212 0.328083,0.0635 0.15875,0.0318 0.254,0.0635 z"
         style="font-style:normal;font-variant:normal;font-weight:500;font-stretch:normal;font-family:Ubuntu;-inkscape-font-specification:'Ubuntu Medium';stroke-width:0.26458332"
         id="path840"
         inkscape:connector-curvature="0" />
      <path
         d="m 83.911069,142.30968 q -0.529166,-1.09009 -1.090083,-2.49767 -0.550333,-1.41817 -1.005417,-3.03742 h 1.36525 q 0.116417,0.46567 0.264584,1.00542 0.15875,0.52917 0.328083,1.06892 0.179917,0.52916 0.359833,1.03716 0.1905,0.49742 0.34925,0.89959 0.15875,-0.40217 0.338667,-0.89959 0.179917,-0.508 0.34925,-1.03716 0.179917,-0.53975 0.338667,-1.06892 0.15875,-0.53975 0.275166,-1.00542 h 1.322917 q -0.455083,1.61925 -1.016,3.03742 -0.550333,1.40758 -1.0795,2.49767 z"
         style="font-style:normal;font-variant:normal;font-weight:500;font-stretch:normal;font-family:Ubuntu;-inkscape-font-specification:'Ubuntu Medium';stroke-width:0.26458332"
         id="path842"
         inkscape:connector-curvature="0" />
      <path
         d="m 89.344452,142.30968 h -1.280583 v -5.53509 h 1.280583 z m 0.137584,-7.15434 q 0,0.35984 -0.232834,0.5715 -0.232833,0.21167 -0.550333,0.21167 -0.328083,0 -0.560917,-0.21167 -0.232833,-0.21166 -0.232833,-0.5715 0,-0.37041 0.232833,-0.58208 0.232834,-0.21167 0.560917,-0.21167 0.3175,0 0.550333,0.21167 0.232834,0.21167 0.232834,0.58208 z"
         style="font-style:normal;font-variant:normal;font-weight:500;font-stretch:normal;font-family:Ubuntu;-inkscape-font-specification:'Ubuntu Medium';stroke-width:0.26458332"
         id="path844"
         inkscape:connector-curvature="0" />
      <path
         d="m 90.66092,139.56859 q 0,-0.73025 0.211666,-1.28058 0.22225,-0.55033 0.582084,-0.91017 0.359833,-0.37041 0.8255,-0.55033 0.465666,-0.1905 0.9525,-0.1905 1.143,0 1.778,0.70908 0.645583,0.70909 0.645583,2.11667 0,0.10583 -0.01058,0.24342 0,0.127 -0.01058,0.23283 h -3.65125 q 0.05292,0.66675 0.465667,1.03717 0.423333,0.35983 1.217083,0.35983 0.465667,0 0.846667,-0.0847 0.391583,-0.0847 0.613833,-0.17991 l 0.169334,1.04775 q -0.105834,0.0529 -0.296334,0.11641 -0.179916,0.0529 -0.423333,0.0952 -0.232833,0.0529 -0.508,0.0847 -0.275167,0.0317 -0.560917,0.0317 -0.73025,0 -1.27,-0.21167 -0.53975,-0.22225 -0.889,-0.60325 -0.34925,-0.39158 -0.518583,-0.91016 -0.169333,-0.52917 -0.169333,-1.15359 z m 3.71475,-0.5715 q 0,-0.26458 -0.07408,-0.49741 -0.07408,-0.24342 -0.22225,-0.41275 -0.137583,-0.17992 -0.34925,-0.27517 -0.201083,-0.10583 -0.486833,-0.10583 -0.296333,0 -0.518583,0.11641 -0.22225,0.10584 -0.381,0.28575 -0.148167,0.17992 -0.232834,0.41275 -0.08467,0.23284 -0.116416,0.47625 z"
         style="font-style:normal;font-variant:normal;font-weight:500;font-stretch:normal;font-family:Ubuntu;-inkscape-font-specification:'Ubuntu Medium';stroke-width:0.26458332"
         id="path846"
         inkscape:connector-curvature="0" />
      <path
         d="m 100.30564,138.82776 q -0.24341,0.93133 -0.529162,1.82033 -0.275166,0.87842 -0.550333,1.66159 h -1.04775 q -0.211667,-0.48684 -0.4445,-1.11125 -0.232833,-0.62442 -0.465667,-1.3335 -0.232833,-0.70909 -0.465666,-1.49225 -0.232834,-0.78317 -0.455084,-1.59809 h 1.354667 q 0.09525,0.4445 0.22225,0.96309 0.127,0.508 0.264583,1.04775 0.137584,0.52916 0.28575,1.03716 0.148167,0.508 0.296334,0.93134 0.15875,-0.48684 0.306916,-1.00542 0.15875,-0.51858 0.296334,-1.03717 0.137583,-0.51858 0.254,-1.00541 0.127,-0.49742 0.22225,-0.93134 h 0.984248 q 0.0952,0.43392 0.21167,0.93134 0.11641,0.48683 0.24341,1.00541 0.13759,0.51859 0.28575,1.03717 0.15875,0.51858 0.3175,1.00542 0.13759,-0.42334 0.28575,-0.93134 0.14817,-0.508 0.28575,-1.03716 0.14817,-0.53975 0.27517,-1.04775 0.127,-0.51859 0.22225,-0.96309 h 1.32292 q -0.22225,0.81492 -0.45509,1.59809 -0.23283,0.78316 -0.46566,1.49225 -0.23284,0.70908 -0.46567,1.3335 -0.23283,0.62441 -0.45508,1.11125 h -1.03717 q -0.27517,-0.78317 -0.5715,-1.66159 -0.28575,-0.889 -0.52917,-1.82033 z"
         style="font-style:normal;font-variant:normal;font-weight:500;font-stretch:normal;font-family:Ubuntu;-inkscape-font-specification:'Ubuntu Medium';stroke-width:0.26458332"
         id="path848"
         inkscape:connector-curvature="0" />
    </g>
  </g>
</svg>
