<?xml version="1.0" encoding="UTF-8" standalone="no"?>
<!-- Created with Inkscape (http://www.inkscape.org/) -->

<svg
   xmlns:dc="http://purl.org/dc/elements/1.1/"
   xmlns:cc="http://creativecommons.org/ns#"
   xmlns:rdf="http://www.w3.org/1999/02/22-rdf-syntax-ns#"
   xmlns:svg="http://www.w3.org/2000/svg"
   xmlns="http://www.w3.org/2000/svg"
   xmlns:sodipodi="http://sodipodi.sourceforge.net/DTD/sodipodi-0.dtd"
   xmlns:inkscape="http://www.inkscape.org/namespaces/inkscape"
   width="90mm"
   height="90mm"
   viewBox="0 0 90 90"
   version="1.1"
   id="svg8"
   inkscape:version="0.92.3 (2405546, 2018-03-11)"
   sodipodi:docname="keto-tv.svg"
   inkscape:export-filename="keto-tv.png"
   inkscape:export-xdpi="141.11111"
   inkscape:export-ydpi="141.11111">
  <defs
     id="defs2" />
  <sodipodi:namedview
     id="base"
     pagecolor="#ffffff"
     bordercolor="#666666"
     borderopacity="1.0"
     inkscape:pageopacity="0.0"
     inkscape:pageshadow="2"
     inkscape:zoom="1.4"
     inkscape:cx="149.93859"
     inkscape:cy="164.94398"
     inkscape:document-units="mm"
     inkscape:current-layer="layer1"
     showgrid="false"
     fit-margin-top="0"
     fit-margin-left="0"
     fit-margin-right="0"
     fit-margin-bottom="0"
     borderlayer="false"
     inkscape:pagecheckerboard="true"
     inkscape:window-width="1366"
     inkscape:window-height="705"
     inkscape:window-x="-8"
     inkscape:window-y="-8"
     inkscape:window-maximized="1"
     showguides="true" />
  <metadata
     id="metadata5">
    <rdf:RDF>
      <cc:Work
         rdf:about="">
        <dc:format>image/svg+xml</dc:format>
        <dc:type
           rdf:resource="http://purl.org/dc/dcmitype/StillImage" />
        <dc:title></dc:title>
      </cc:Work>
    </rdf:RDF>
  </metadata>
  <g
     inkscape:label="Layer 1"
     inkscape:groupmode="layer"
     id="layer1"
     transform="translate(-38.754078,-76.008798)">
    <g
       id="g896"
       transform="matrix(2.2033435,0,0,2.4317445,-103.46509,-141.78662)">
      <path
         inkscape:connector-curvature="0"
         id="path823-3"
         d="m 84.088446,91.689322 a 16.426022,17.969564 85.823132 0 1 11.107364,2.573815 15.38659,17.475176 85.823132 0 0 -9.279536,-1.614031 15.38659,17.475176 85.823132 0 0 -16.307858,16.618484 15.38659,17.475176 85.823132 0 0 18.549248,14.07297 15.38659,17.475176 85.823132 0 0 8.303117,-2.54267 16.426022,17.969564 85.823132 0 1 -9.979523,3.65631 A 16.426022,17.969564 85.823132 0 1 67.36336,109.38025 16.426022,17.969564 85.823132 0 1 84.088446,91.689322 Z"
         style="opacity:1;fill:#aa0000;fill-opacity:1;stroke:none;stroke-width:2.59120011;stroke-linejoin:bevel;stroke-miterlimit:4;stroke-dasharray:none;stroke-opacity:1" />
      <path
         inkscape:connector-curvature="0"
         id="path823-3-5"
         d="m 88.191035,93.98008 a 15.17364,14.063561 4.9467288 0 0 -9.378344,2.203838 14.756108,13.173683 4.6937918 0 1 7.835051,-1.382024 14.756108,13.173683 4.6937918 0 1 13.769218,14.229596 14.756108,13.173683 4.6937918 0 1 -15.661698,12.04999 14.756108,13.173683 4.6937918 0 1 -7.010634,-2.17716 15.17364,14.063561 4.9467288 0 0 8.426079,3.13072 15.17364,14.063561 4.9467288 0 0 16.141823,-12.90708 15.17364,14.063561 4.9467288 0 0 -14.121495,-15.14788 z"
         style="opacity:1;fill:#0078a4;fill-opacity:1;stroke:none;stroke-width:2.20322323;stroke-linejoin:bevel;stroke-miterlimit:4;stroke-dasharray:none;stroke-opacity:1" />
    </g>
    <g
       aria-label="45"
       style="font-style:normal;font-weight:normal;font-size:10.58333302px;line-height:1.25;font-family:sans-serif;letter-spacing:0px;word-spacing:0px;fill:#000000;fill-opacity:1;stroke:none;stroke-width:0.26458332"
       id="text823">
      <path
         d="m 61.942166,101.77425 8.9408,0.5588 -0.9144,11.938 3.81,-0.1524 0.5588,-12.192 7.4676,0.1016 1.1176,30.2768 -9.3472,-0.1016 0.4064,-8.4836 -13.462,-0.3556 z"
         style="font-style:normal;font-variant:normal;font-weight:normal;font-stretch:normal;font-size:50.79999924px;font-family:'Soup of Justice';-inkscape-font-specification:'Soup of Justice';stroke-width:0.26458332"
         id="path829"
         inkscape:connector-curvature="0" />
      <path
         d="m 88.72329,102.28225 17.8308,-0.508 q 0.0508,2.54 0.1016,4.5212 0,0.8636 0,1.6764 0.0508,0.762 0.0508,1.4224 0,0.6096 -0.0508,0.9652 0,0.3556 0,0.3556 -0.0508,-0.0508 -1.3208,-0.1016 -1.27,-0.0508 -2.794,-0.1524 -1.778,-0.1016 -4.0132,-0.2032 l -0.2032,4.6228 q 2.3876,0.1524 4.0132,0.762 1.6256,0.6096 2.6416,1.6764 1.0668,1.016 1.6256,2.3876 0.6096,1.3716 0.9144,3.048 0,1.4732 -0.4064,2.794 -0.3556,1.1684 -1.1176,2.4384 -0.7112,1.2192 -2.032,2.1336 -1.8288,1.3208 -3.8608,1.9304 -2.032,0.5588 -4.064,0.6604 -1.9812,0.1524 -3.7592,-0.0508 -1.778,-0.2032 -3.1496,-0.5588 -1.3208,-0.3556 -2.032,-0.7112 -0.7112,-0.3556 -0.5588,-0.4572 l 0.3556,-5.2832 q 1.6764,0.5588 3.302,0.8128 1.3716,0.254 2.8448,0.254 1.524,-0.0508 2.5908,-0.6604 1.5748,-1.2192 1.524,-2.4384 -0.0508,-1.2192 -1.2192,-2.2352 -1.1684,-1.016 -3.2004,-1.6256 -2.032,-0.6096 -4.4196,-0.6096 z"
         style="font-style:normal;font-variant:normal;font-weight:normal;font-stretch:normal;font-size:50.79999924px;font-family:'Soup of Justice';-inkscape-font-specification:'Soup of Justice';stroke-width:0.26458332"
         id="path831"
         inkscape:connector-curvature="0" />
    </g>
    <g
       aria-label="KETO-TV"
       style="font-style:normal;font-weight:normal;font-size:10.58333302px;line-height:1.25;font-family:sans-serif;letter-spacing:0px;word-spacing:0px;fill:#000000;fill-opacity:1;stroke:none;stroke-width:0.26458332"
       id="text829"
       transform="translate(0,0.52916667)">
      <path
         d="m 66.881594,141.06236 q -0.275167,-0.42333 -0.635,-0.889 -0.359833,-0.46566 -0.762,-0.89958 -0.391583,-0.43392 -0.814917,-0.8255 -0.423333,-0.39158 -0.836083,-0.67733 v 3.29141 h -1.3335 v -7.33425 h 1.3335 v 3.02684 q 0.34925,-0.34925 0.73025,-0.74084 0.381,-0.40216 0.751417,-0.80433 0.381,-0.41275 0.719666,-0.79375 0.338667,-0.381 0.613834,-0.68792 h 1.598083 q -0.34925,0.40217 -0.740833,0.83609 -0.391584,0.43391 -0.804334,0.87841 -0.41275,0.43392 -0.836083,0.86784 -0.41275,0.43391 -0.814917,0.8255 0.4445,0.33866 0.899584,0.79375 0.465666,0.4445 0.910166,0.96308 0.4445,0.508 0.846667,1.06892 0.41275,0.55033 0.751417,1.10066 z"
         style="font-style:normal;font-variant:normal;font-weight:500;font-stretch:normal;font-family:Ubuntu;-inkscape-font-specification:'Ubuntu Medium';stroke-width:0.26458332"
         id="path832"
         inkscape:connector-curvature="0" />
      <path
         d="m 69.383395,141.06236 v -7.33425 h 4.709583 v 1.13242 h -3.376083 v 1.80975 h 3.005666 v 1.11125 h -3.005666 v 2.14842 h 3.630083 v 1.13241 z"
         style="font-style:normal;font-variant:normal;font-weight:500;font-stretch:normal;font-family:Ubuntu;-inkscape-font-specification:'Ubuntu Medium';stroke-width:0.26458332"
         id="path834"
         inkscape:connector-curvature="0" />
      <path
         d="m 80.696317,133.72811 v 1.15359 h -2.25425 v 6.18066 h -1.344084 v -6.18066 h -2.25425 v -1.15359 z"
         style="font-style:normal;font-variant:normal;font-weight:500;font-stretch:normal;font-family:Ubuntu;-inkscape-font-specification:'Ubuntu Medium';stroke-width:0.26458332"
         id="path836"
         inkscape:connector-curvature="0" />
      <path
         d="m 82.545091,137.38995 q 0,0.60325 0.148167,1.10066 0.148167,0.48684 0.423333,0.83609 0.28575,0.33866 0.687917,0.52916 0.402167,0.1905 0.910167,0.1905 0.497416,0 0.899583,-0.1905 0.402167,-0.1905 0.677333,-0.52916 0.28575,-0.34925 0.433917,-0.83609 0.148167,-0.49741 0.148167,-1.10066 0,-0.60325 -0.148167,-1.09009 -0.148167,-0.49741 -0.433917,-0.83608 -0.275166,-0.34925 -0.677333,-0.53975 -0.402167,-0.1905 -0.899583,-0.1905 -0.508,0 -0.910167,0.1905 -0.402167,0.1905 -0.687917,0.53975 -0.275166,0.34925 -0.423333,0.83608 -0.148167,0.48684 -0.148167,1.09009 z m 5.725584,0 q 0,0.94191 -0.28575,1.66158 -0.275167,0.71967 -0.762,1.2065 -0.47625,0.47625 -1.121834,0.71967 -0.645583,0.24341 -1.375833,0.24341 -0.73025,0 -1.386417,-0.24341 -0.645583,-0.24342 -1.132416,-0.71967 -0.47625,-0.48683 -0.762,-1.2065 -0.28575,-0.71967 -0.28575,-1.66158 0,-0.94192 0.28575,-1.651 0.28575,-0.71967 0.772583,-1.2065 0.497417,-0.48684 1.143,-0.73025 0.645583,-0.24342 1.36525,-0.24342 0.719667,0 1.36525,0.24342 0.645583,0.24341 1.121833,0.73025 0.486834,0.48683 0.772584,1.2065 0.28575,0.70908 0.28575,1.651 z"
         style="font-style:normal;font-variant:normal;font-weight:500;font-stretch:normal;font-family:Ubuntu;-inkscape-font-specification:'Ubuntu Medium';stroke-width:0.26458332"
         id="path838"
         inkscape:connector-curvature="0" />
      <path
         d="m 89.088239,137.45345 h 2.846916 v 1.17475 h -2.846916 z"
         style="font-style:normal;font-variant:normal;font-weight:500;font-stretch:normal;font-family:Ubuntu;-inkscape-font-specification:'Ubuntu Medium';stroke-width:0.26458332"
         id="path840"
         inkscape:connector-curvature="0" />
      <path
         d="m 97.687527,133.72811 v 1.15359 h -2.254249 v 6.18066 h -1.344084 v -6.18066 h -2.25425 v -1.15359 z"
         style="font-style:normal;font-variant:normal;font-weight:500;font-stretch:normal;font-family:Ubuntu;-inkscape-font-specification:'Ubuntu Medium';stroke-width:0.26458332"
         id="path842"
         inkscape:connector-curvature="0" />
      <path
         d="m 101.03781,141.06236 q -0.79375,-1.7145 -1.534581,-3.58775 -0.73025,-1.87325 -1.365249,-3.7465 h 1.471083 q 0.254,0.74084 0.518587,1.51342 0.26458,0.77258 0.52916,1.524 0.26459,0.74083 0.52917,1.43933 0.26458,0.6985 0.51858,1.28059 0.24342,-0.58209 0.508,-1.27 0.26459,-0.6985 0.52917,-1.44992 0.27517,-0.75142 0.53975,-1.524 0.26458,-0.77258 0.508,-1.51342 h 1.42875 q -0.64558,1.87325 -1.37583,3.7465 -0.73025,1.87325 -1.524,3.58775 z"
         style="font-style:normal;font-variant:normal;font-weight:500;font-stretch:normal;font-family:Ubuntu;-inkscape-font-specification:'Ubuntu Medium';stroke-width:0.26458332"
         id="path844"
         inkscape:connector-curvature="0" />
    </g>
  </g>
</svg>
