<?xml version="1.0" encoding="UTF-8" standalone="no"?>
<!-- Created with Inkscape (http://www.inkscape.org/) -->

<svg
   xmlns:dc="http://purl.org/dc/elements/1.1/"
   xmlns:cc="http://creativecommons.org/ns#"
   xmlns:rdf="http://www.w3.org/1999/02/22-rdf-syntax-ns#"
   xmlns:svg="http://www.w3.org/2000/svg"
   xmlns="http://www.w3.org/2000/svg"
   xmlns:sodipodi="http://sodipodi.sourceforge.net/DTD/sodipodi-0.dtd"
   xmlns:inkscape="http://www.inkscape.org/namespaces/inkscape"
   width="371.04877mm"
   height="59.564129mm"
   viewBox="0 0 371.04877 59.564128"
   version="1.1"
   id="svg8"
   inkscape:version="0.92.3 (2405546, 2018-03-11)"
   sodipodi:docname="logo.svg"
   inkscape:export-filename="logo.png"
   inkscape:export-xdpi="20.536385"
   inkscape:export-ydpi="20.536385">
  <defs
     id="defs2" />
  <sodipodi:namedview
     id="base"
     pagecolor="#ffffff"
     bordercolor="#666666"
     borderopacity="1.0"
     inkscape:pageopacity="0"
     inkscape:pageshadow="2"
     inkscape:zoom="0.35"
     inkscape:cx="702.74264"
     inkscape:cy="171.75371"
     inkscape:document-units="mm"
     inkscape:current-layer="layer1"
     showgrid="false"
     fit-margin-top="0"
     fit-margin-left="0"
     fit-margin-right="0"
     fit-margin-bottom="0"
     inkscape:pagecheckerboard="true"
     inkscape:window-width="1366"
     inkscape:window-height="705"
     inkscape:window-x="-8"
     inkscape:window-y="-8"
     inkscape:window-maximized="1"
     borderlayer="true" />
  <metadata
     id="metadata5">
    <rdf:RDF>
      <cc:Work
         rdf:about="">
        <dc:format>image/svg+xml</dc:format>
        <dc:type
           rdf:resource="http://purl.org/dc/dcmitype/StillImage" />
        <dc:title></dc:title>
      </cc:Work>
    </rdf:RDF>
  </metadata>
  <g
     inkscape:label="Layer 1"
     inkscape:groupmode="layer"
     id="layer1"
     transform="translate(153.16857,-4.2113115)">
    <g
       id="g835"
       transform="matrix(0.22219136,0,0,0.21614651,39.008616,3.6278441)">
      <g
         id="text832"
         style="font-style:normal;font-weight:normal;font-size:117.18486023px;line-height:1.25;font-family:sans-serif;letter-spacing:0px;word-spacing:0px;fill:#000000;fill-opacity:1;stroke:none;stroke-width:2.92962146;stroke-opacity:1"
         transform="scale(1.003864,0.99615088)"
         aria-label="Bark">
        <path
           inkscape:connector-curvature="0"
           id="path826"
           style="font-style:normal;font-variant:normal;font-weight:normal;font-stretch:normal;font-size:156.24649048px;font-family:'Soup of Justice';-inkscape-font-specification:'Soup of Justice';fill:#000000;fill-opacity:1;stroke:none;stroke-width:2.92962146;stroke-opacity:1"
           d="m -243.82856,4.8816638 40.46785,-1.5624649 q 7.03109,0.4687395 12.96845,2.8124368 2.49995,0.937479 4.99989,2.4999439 2.65619,1.5624644 4.84364,3.7499154 2.18745,2.187451 3.90617,4.999888 1.71871,2.812437 2.49994,6.562353 1.24997,6.562352 0.15625,11.56224 -0.93748,4.999888 -2.65619,8.593557 -2.03121,4.218655 -5.15614,7.499831 3.28118,2.343698 5.93737,4.999888 2.81243,2.656191 4.68739,5.937367 1.87496,3.281176 2.49995,7.499831 0.62498,4.062409 -0.3125,9.687283 -1.24997,7.343585 -4.84364,11.405994 -3.43742,4.062408 -6.87484,6.093613 -4.21866,2.343697 -9.0623,2.81244 -16.09339,-0.468743 -28.74935,-0.781236 -5.46863,-0.156246 -10.62477,-0.156246 -5.15613,-0.156247 -9.21854,-0.312493 -3.90616,-0.156247 -6.4061,-0.156247 -2.49995,-0.156246 -2.49995,-0.156246 z m 28.43687,31.4055442 10.31226,0.312493 q 3.74992,0.156247 5.15614,-1.718711 1.56246,-1.874958 2.49994,-6.24986 -0.15624,-2.031204 -1.09372,-3.437422 -0.78124,-1.406219 -2.03121,-2.187451 -1.24997,-0.937479 -2.65619,-1.406219 -1.40622,-0.468739 -2.65619,-0.624986 l -9.06229,0.624986 z m -2.96869,43.749018 14.21843,-0.46874 q 2.49995,-0.156246 5.15614,-0.937479 2.65619,-0.781232 3.28117,-4.531148 -0.62498,-4.218655 -2.34369,-6.406106 -1.56247,-2.343697 -5.15614,-2.65619 l -14.21843,-1.093726 z" />
        <path
           inkscape:connector-curvature="0"
           id="path828"
           style="font-style:normal;font-variant:normal;font-weight:normal;font-stretch:normal;font-size:156.24649048px;font-family:'Soup of Justice';-inkscape-font-specification:'Soup of Justice';fill:#000000;fill-opacity:1;stroke:none;stroke-width:2.92962146;stroke-opacity:1"
           d="m -162.91241,98.785805 24.06196,-94.2166342 42.499048,-0.6249859 22.811987,94.9978661 -29.843075,2.812439 -3.74992,-18.749581 h -21.87451 l -3.59367,18.749581 z m 50.31137,-40.467841 -6.09361,-29.218094 -5.15613,29.686833 z" />
        <path
           inkscape:connector-curvature="0"
           id="path830"
           style="font-style:normal;font-variant:normal;font-weight:normal;font-stretch:normal;font-size:156.24649048px;font-family:'Soup of Justice';-inkscape-font-specification:'Soup of Justice';fill:#000000;fill-opacity:1;stroke:none;stroke-width:2.92962146;stroke-opacity:1"
           d="M 4.9988519,81.598691 -12.657001,103.16071 -34.375264,85.036113 -34.53151,100.19202 -65.468315,98.942051 -63.124618,3.9441849 -40.000137,2.8504594 q 8.749803,-0.4687394 15.155909,0.624986 6.406106,0.9374789 10.937255,3.1249298 4.5311478,2.0312044 7.6560776,5.1561338 3.1249298,2.968684 5.46862718,6.562353 1.7187114,2.812437 2.96868332,9.374789 Q 3.436387,34.099758 3.123894,41.912082 2.8114011,49.56816 -0.00103577,57.224238 -2.6572261,64.72407 -8.9070857,69.567711 Z M -31.562827,50.818132 q 5.156134,-1.718711 6.874846,-5.624874 1.874958,-3.906162 1.249972,-10.312268 -1.718712,-3.906162 -4.843642,-5.468627 -3.124929,-1.562465 -6.406106,-1.718712 l 0.156247,23.749467 q 0.781232,-0.156247 1.406218,-0.312493 0.781233,-0.156246 1.562465,-0.312493 z" />
        <path
           inkscape:connector-curvature="0"
           id="path832"
           style="font-style:normal;font-variant:normal;font-weight:normal;font-stretch:normal;font-size:156.24649048px;font-family:'Soup of Justice';-inkscape-font-specification:'Soup of Justice';fill:#000000;fill-opacity:1;stroke:none;stroke-width:2.92962146;stroke-opacity:1"
           d="M 8.5022058,3.7879384 36.939067,5.5066498 37.876546,27.224912 64.594696,3.3191989 q 5.78112,6.2498596 10.312268,11.4059941 1.874958,2.187451 3.749916,4.374901 1.874958,2.031205 3.281176,3.749916 1.406219,1.562465 2.187451,2.656191 0.781233,0.937479 0.781233,0.937479 l -32.49927,28.749354 34.217981,26.24941 q -5.78112,6.093613 -10.156022,10.937254 -1.874958,2.031205 -3.749916,4.062409 -1.718711,1.874958 -3.124929,3.437423 -1.406219,1.56246 -2.187451,2.49994 -0.781233,0.93748 -0.624986,0.93748 L 41.938955,85.504853 42.563941,100.34827 H 8.0334663 Z" />
      </g>
      <g
         id="text836"
         style="font-style:normal;font-weight:normal;font-size:117.18486023px;line-height:1.25;font-family:sans-serif;letter-spacing:0px;word-spacing:0px;fill:#000000;fill-opacity:1;stroke:none;stroke-width:2.92962146;stroke-opacity:1"
         transform="scale(1.003864,0.99615088)"
         aria-label="Pack">
        <path
           inkscape:connector-curvature="0"
           id="path835"
           style="font-style:normal;font-variant:normal;font-weight:normal;font-stretch:normal;font-size:109.37254333px;font-family:'Soup of Justice';-inkscape-font-specification:'Soup of Justice';fill:#000000;fill-opacity:1;stroke:none;stroke-width:2.92962146;stroke-opacity:1"
           d="m 141.15384,83.380354 q -1.74996,0.656235 -3.39055,1.421843 -1.53122,0.656235 -3.28118,1.312471 -1.64058,0.546862 -3.71866,0.984353 -1.96871,0.328117 -4.59365,0.328117 l -0.10937,13.780942 -23.95259,0.10937 3.39055,-69.342191 16.734,1.093725 q 6.12486,0.43749 10.39039,1.531216 4.3749,1.093725 7.32796,2.734313 3.06243,1.640589 5.03114,3.828039 1.9687,2.187451 3.60929,4.70302 1.53122,3.281176 2.18745,7.437333 0.54687,3.499921 0.43749,8.421686 0,4.812391 -1.64059,10.718509 -0.98435,3.390549 -2.51556,5.577999 -1.42185,2.078079 -2.73432,3.281177 -1.31247,1.203098 -2.29682,1.640588 -0.87498,0.43749 -0.87498,0.43749 z M 128.576,69.818159 q 4.3749,-1.312471 5.79674,-4.593647 1.53122,-3.390549 0.98435,-8.749804 -1.53121,-3.171803 -4.15615,-4.484274 -2.51557,-1.421843 -5.24988,-1.531215 l 0.10937,19.905802 q 0.65623,-0.109372 1.2031,-0.218745 0.65623,-0.109372 1.31247,-0.328117 z" />
        <path
           inkscape:connector-curvature="0"
           id="path837"
           style="font-style:normal;font-variant:normal;font-weight:normal;font-stretch:normal;font-size:109.37254333px;font-family:'Soup of Justice';-inkscape-font-specification:'Soup of Justice';fill:#000000;fill-opacity:1;stroke:none;stroke-width:2.92962146;stroke-opacity:1"
           d="m 154.1948,100.22373 16.84338,-65.951648 29.74933,-0.43749 15.96839,66.498508 -20.89016,1.9687 -2.62494,-13.124701 h -15.31215 l -2.51557,13.124701 z m 35.21796,-28.327493 -4.26553,-20.452666 -3.60929,20.780784 z" />
        <path
           inkscape:connector-curvature="0"
           id="path839"
           style="font-style:normal;font-variant:normal;font-weight:normal;font-stretch:normal;font-size:109.37254333px;font-family:'Soup of Justice';-inkscape-font-specification:'Soup of Justice';fill:#000000;fill-opacity:1;stroke:none;stroke-width:2.92962146;stroke-opacity:1"
           d="m 280.4825,92.567648 q 0,0.109372 -2.95306,1.968706 -2.95306,1.859333 -8.09357,3.718666 -5.03113,1.85933 -11.81223,2.84369 -6.7811,0.87498 -14.43718,-0.98436 -3.93741,-0.98435 -7.10921,-2.73431 -3.06243,-1.859334 -5.46863,-4.26553 -2.29682,-2.406195 -4.04678,-5.031137 -1.64059,-2.734313 -2.73432,-5.468627 -2.73431,-6.234235 -3.49992,-13.671568 -0.76561,-6.89047 0.65624,-13.124705 0.65623,-2.624941 1.74996,-5.359254 1.20309,-2.843687 3.1718,-5.468628 1.96871,-2.624941 4.81239,-4.921764 2.95306,-2.296823 6.99984,-3.937412 6.01549,-2.515568 12.79659,-2.843686 6.89047,-0.328117 12.68722,0.43749 6.78109,0.874981 13.34345,2.734314 l -6.12487,20.233921 q -2.07807,-1.749961 -4.81239,-2.843687 -2.29682,-0.87498 -5.46862,-1.203098 -3.06244,-0.43749 -6.56236,0.874981 -1.9687,0.656235 -3.82804,2.078078 -1.85933,1.312471 -3.39054,3.281176 -1.42185,1.968706 -2.18746,4.593647 -0.65623,2.515569 -0.32811,5.578 1.31247,8.749803 7.21858,10.281019 5.90612,1.421843 15.31216,-4.484274 z" />
        <path
           inkscape:connector-curvature="0"
           id="path841"
           style="font-style:normal;font-variant:normal;font-weight:normal;font-stretch:normal;font-size:109.37254333px;font-family:'Soup of Justice';-inkscape-font-specification:'Soup of Justice';fill:#000000;fill-opacity:1;stroke:none;stroke-width:2.92962146;stroke-opacity:1"
           d="m 285.72041,33.725219 19.90581,1.203098 0.65623,15.202784 18.70271,-16.733999 q 4.04678,4.374902 7.21858,7.984195 1.31247,1.531216 2.62495,3.062432 1.31247,1.421843 2.29682,2.624941 0.98435,1.093725 1.53121,1.859333 0.54687,0.656235 0.54687,0.656235 l -22.74949,20.124548 23.95258,18.374587 q -4.04678,4.26553 -7.10921,7.656079 -1.31247,1.421843 -2.62494,2.843686 -1.2031,1.31247 -2.18745,2.406192 -0.98436,1.09373 -1.53122,1.74996 -0.54686,0.65624 -0.43749,0.65624 l -17.39023,-12.46847 0.43749,10.39039 H 285.3923 Z" />
      </g>
    </g>
    <g
       aria-label="Anthony &amp; Zack"
       style="font-style:normal;font-weight:normal;font-size:10.58333302px;line-height:1.25;font-family:sans-serif;letter-spacing:0px;word-spacing:0px;fill:#000000;fill-opacity:1;stroke:none;stroke-width:0.26458332"
       id="text839">
      <path
         d="m -153.16857,62.271679 7.8232,-30.632399 13.8176,-0.2032 7.4168,30.886399 -9.7028,0.9144 -1.2192,-6.096 h -7.112 l -1.1684,6.096 z m 16.3576,-13.157199 -1.9812,-9.4996 -1.6764,9.652 z"
         style="font-style:normal;font-variant:normal;font-weight:normal;font-stretch:normal;font-size:50.79999924px;font-family:'Soup of Justice';-inkscape-font-specification:'Soup of Justice';stroke-width:0.26458332"
         id="path843" />
      <path
         d="m -106.45003,31.58848 9.651996,0.8636 1.269999,30.378399 -10.972795,0.254 -5.7912,-14.731999 0.4064,14.579599 -10.2108,-0.1524 1.7272,-31.495999 9.144,0.8128 5.1816,13.0556 z"
         style="font-style:normal;font-variant:normal;font-weight:normal;font-stretch:normal;font-size:50.79999924px;font-family:'Soup of Justice';-inkscape-font-specification:'Soup of Justice';stroke-width:0.26458332"
         id="path845" />
      <path
         d="m -72.202101,37.48128 -4.2164,0.254 0.1524,25.044399 h -11.2268 l 1.524,-24.485599 -6.7056,0.3556 0.254,-7.4168 20.0152,-1.016 z"
         style="font-style:normal;font-variant:normal;font-weight:normal;font-stretch:normal;font-size:50.79999924px;font-family:'Soup of Justice';-inkscape-font-specification:'Soup of Justice';stroke-width:0.26458332"
         id="path847" />
      <path
         d="m -52.557581,31.58848 9.652,0.8636 1.27,30.378399 -10.9728,0.254 0.2032,-12.3444 h -5.0292 l -0.5588,12.192 -10.2108,-0.1524 1.7272,-31.495999 9.144,0.8128 -0.1016,11.3284 4.826,0.0508 z"
         style="font-style:normal;font-variant:normal;font-weight:normal;font-stretch:normal;font-size:50.79999924px;font-family:'Soup of Justice';-inkscape-font-specification:'Soup of Justice';stroke-width:0.26458332"
         id="path849" />
      <path
         d="m -12.687523,60.646079 q -1.4732,0.5588 -2.8448,1.2192 -1.3208,0.6096 -3.0988,1.016 -1.7272,0.3556 -4.1148,0.254 -2.3876,-0.0508 -5.9436,-0.9144 -1.8288,-0.4572 -3.302,-1.27 -1.4224,-0.8636 -2.54,-1.9812 -1.0668,-1.1176 -1.8796,-2.3368 -0.762,-1.27 -1.27,-2.54 -1.27,-2.8956 -1.6256,-6.349999 -0.3556,-3.2004 0.3048,-6.096 0.3048,-1.2192 0.8128,-2.4892 0.5588,-1.3208 1.4732,-2.54 0.9144,-1.2192 2.2352,-2.286 1.3716,-1.0668 3.2512,-1.8288 4.8768,-2.1336 8.636,-2.3368 3.7592,-0.254 6.5532,0.762 2.8448,0.9652 4.7752,2.8448 1.9811998,1.8796 3.2003998,3.8608 0.8636,2.032 1.3208,4.572 0.4063999,2.1844 0.3048,5.1816 -0.0508,2.9972 -1.0668,6.603999 -0.6096,2.0828 -1.4732,3.4036 -0.8636,1.27 -1.6763998,1.9812 -0.8128,0.7112 -1.4224,1.016 -0.5588,0.254 -0.6096,0.254 z m -11.176,-20.065999 q -0.9144,0.3048 -1.778,0.9144 -0.8128,0.6096 -1.4224,1.524 -0.6096,0.8636 -0.9144,2.032 -0.3048,1.1684 -0.1524,2.5908 0.3048,2.032 1.016,3.149599 0.762,1.1176 1.778,1.5748 1.0668,0.4572 2.3368,0.4064 1.27,-0.1016 2.6416,-0.4064 1.3208,-0.4064 2.2352,-0.9652 0.9652,-0.5588 1.4732,-1.473199 0.508,-0.9144 0.6096,-2.286 0.1524,-1.3716 -0.1524,-3.4544 -0.2032,-1.524 -0.9144,-2.3876 -0.7112,-0.9144 -1.778,-1.27 -1.0668,-0.4064 -2.3876,-0.3556 -1.27,0.0508 -2.5908,0.4064 z"
         style="font-style:normal;font-variant:normal;font-weight:normal;font-stretch:normal;font-size:50.79999924px;font-family:'Soup of Justice';-inkscape-font-specification:'Soup of Justice';stroke-width:0.26458332"
         id="path851" />
      <path
         d="m 11.124179,31.58848 9.652,0.8636 1.27,30.378399 -10.9728,0.254 -5.7912002,-14.731999 0.4064,14.579599 -10.2107999,-0.1524 1.7272,-31.495999 9.1439998,0.8128 5.1816003,13.0556 z"
         style="font-style:normal;font-variant:normal;font-weight:normal;font-stretch:normal;font-size:50.79999924px;font-family:'Soup of Justice';-inkscape-font-specification:'Soup of Justice';stroke-width:0.26458332"
         id="path853" />
      <path
         d="m 43.74651,54.042079 -0.2032,8.6868 -12.3444,-0.4064 -0.3048,-8.2804 -7.5692,-22.301199 10.6172,-0.6096 3.3528,12.7508 3.7592,-13.3604 9.7028,1.7272 z"
         style="font-style:normal;font-variant:normal;font-weight:normal;font-stretch:normal;font-size:50.79999924px;font-family:'Soup of Justice';-inkscape-font-specification:'Soup of Justice';stroke-width:0.26458332"
         id="path855" />
      <path
         d="m 90.449969,47.677197 v 6.771679 l -2.827734,1.785938 3.522265,6.697265 h -9.252148 l -1.21543,-2.232422 q -4.663281,3.075782 -8.830468,3.075782 -4.365625,0 -6.722071,-2.902149 -2.356445,-2.902148 -2.356445,-6.994921 0,-3.274219 1.389063,-5.134571 1.389062,-1.860351 4.167187,-3.026172 -3.96875,-2.852539 -3.96875,-7.714257 0,-4.191992 2.827735,-6.746875 2.827734,-2.554883 7.788671,-2.554883 4.464844,0 7.019727,2.505273 2.579687,2.505274 2.579687,6.374805 0,4.067969 -3.12539,7.218164 l 3.54707,6.399609 z m -15.45332,-7.044531 q 1.686719,-2.207618 1.686719,-4.216797 0,-0.868164 -0.496094,-1.5875 -0.496094,-0.719336 -1.389063,-0.719336 -0.818554,0 -1.240234,0.545703 -0.42168,0.545703 -0.42168,1.661914 0,2.331641 1.860352,4.316016 z M 77.253876,56.1604 74.004461,50.752978 q -1.860351,1.686719 -1.860351,3.646289 0,1.413867 0.570508,2.133203 0.595312,0.694531 1.736328,0.694531 1.21543,0 2.80293,-1.066601 z"
         style="font-style:normal;font-variant:normal;font-weight:normal;font-stretch:normal;font-family:Impact;-inkscape-font-specification:Impact"
         id="path857" />
      <path
         d="m 127.00851,62.779679 -23.7236,-0.2032 9.398,-20.421599 -10.0584,-0.254 v -10.3124 l 27.178,0.9144 -10.2616,21.234399 8.636,-0.3556 z"
         style="font-style:normal;font-variant:normal;font-weight:normal;font-stretch:normal;font-size:50.79999924px;font-family:'Soup of Justice';-inkscape-font-specification:'Soup of Justice';stroke-width:0.26458332"
         id="path859" />
      <path
         d="m 131.39082,62.271679 7.8232,-30.632399 13.8176,-0.2032 7.4168,30.886399 -9.7028,0.9144 -1.2192,-6.096 h -7.112 l -1.1684,6.096 z m 16.3576,-13.157199 -1.9812,-9.4996 -1.6764,9.652 z"
         style="font-style:normal;font-variant:normal;font-weight:normal;font-stretch:normal;font-size:50.79999924px;font-family:'Soup of Justice';-inkscape-font-specification:'Soup of Justice';stroke-width:0.26458332"
         id="path861" />
      <path
         d="m 190.04735,58.715679 q 0,0.0508 -1.3716,0.9144 -1.3716,0.8636 -3.7592,1.7272 -2.3368,0.8636 -5.4864,1.3208 -3.1496,0.4064 -6.7056,-0.4572 -1.8288,-0.4572 -3.302,-1.27 -1.4224,-0.8636 -2.54,-1.9812 -1.0668,-1.1176 -1.8796,-2.3368 -0.762,-1.27 -1.27,-2.54 -1.27,-2.8956 -1.6256,-6.349999 -0.3556,-3.2004 0.3048,-6.096 0.3048,-1.2192 0.8128,-2.4892 0.5588,-1.3208 1.4732,-2.54 0.9144,-1.2192 2.2352,-2.286 1.3716,-1.0668 3.2512,-1.8288 2.794,-1.1684 5.9436,-1.3208 3.2004,-0.1524 5.8928,0.2032 3.1496,0.4064 6.1976,1.27 l -2.8448,9.398 q -0.9652,-0.8128 -2.2352,-1.3208 -1.0668,-0.4064 -2.54,-0.5588 -1.4224,-0.2032 -3.048,0.4064 -0.9144,0.3048 -1.778,0.9652 -0.8636,0.6096 -1.5748,1.524 -0.6604,0.9144 -1.016,2.1336 -0.3048,1.1684 -0.1524,2.5908 0.6096,4.063999 3.3528,4.775199 2.7432,0.6604 7.112,-2.082799 z"
         style="font-style:normal;font-variant:normal;font-weight:normal;font-stretch:normal;font-size:50.79999924px;font-family:'Soup of Justice';-inkscape-font-specification:'Soup of Justice';stroke-width:0.26458332"
         id="path863" />
      <path
         d="m 192.48019,31.38528 9.24559,0.5588 0.3048,7.0612 8.6868,-7.7724 q 1.8796,2.032 3.3528,3.7084 0.6096,0.7112 1.2192,1.4224 0.6096,0.6604 1.0668,1.2192 0.4572,0.508 0.7112,0.8636 0.254,0.3048 0.254,0.3048 l -10.5664,9.3472 11.1252,8.534399 q -1.8796,1.9812 -3.302,3.556 -0.6096,0.6604 -1.2192,1.3208 -0.5588,0.6096 -1.016,1.1176 -0.4572,0.508 -0.7112,0.8128 -0.254,0.3048 -0.2032,0.3048 l -8.0772,-5.7912 0.2032,4.826 h -11.22679 z"
         style="font-style:normal;font-variant:normal;font-weight:normal;font-stretch:normal;font-size:50.79999924px;font-family:'Soup of Justice';-inkscape-font-specification:'Soup of Justice';stroke-width:0.26458332"
         id="path865" />
    </g>
  </g>
</svg>
